<svg width="13" height="13" viewBox="0 0 13 13" fill="none" xmlns="http://www.w3.org/2000/svg">
<g filter="url(#filter0_b_1_12)">
<path d="M4.5625 12.5L4.3125 10.5C4.17708 10.4479 4.04948 10.3854 3.92969 10.3125C3.8099 10.2396 3.69271 10.1615 3.57812 10.0781L1.71875 10.8594L0 7.89062L1.60938 6.67188C1.59896 6.59896 1.59375 6.52865 1.59375 6.46094V6.03906C1.59375 5.97135 1.59896 5.90104 1.60938 5.82812L0 4.60938L1.71875 1.64062L3.57812 2.42188C3.69271 2.33854 3.8125 2.26042 3.9375 2.1875C4.0625 2.11458 4.1875 2.05208 4.3125 2L4.5625 0H8L8.25 2C8.38542 2.05208 8.51302 2.11458 8.63281 2.1875C8.7526 2.26042 8.86979 2.33854 8.98438 2.42188L10.8438 1.64062L12.5625 4.60938L10.9531 5.82812C10.9635 5.90104 10.9688 5.97135 10.9688 6.03906V6.46094C10.9688 6.52865 10.9583 6.59896 10.9375 6.67188L12.5469 7.89062L10.8281 10.8594L8.98438 10.0781C8.86979 10.1615 8.75 10.2396 8.625 10.3125C8.5 10.3854 8.375 10.4479 8.25 10.5L8 12.5H4.5625ZM5.65625 11.25H6.89062L7.10938 9.59375C7.43229 9.51042 7.73177 9.38802 8.00781 9.22656C8.28385 9.0651 8.53646 8.86979 8.76562 8.64062L10.3125 9.28125L10.9219 8.21875L9.57812 7.20312C9.63021 7.05729 9.66667 6.90365 9.6875 6.74219C9.70833 6.58073 9.71875 6.41667 9.71875 6.25C9.71875 6.08333 9.70833 5.91927 9.6875 5.75781C9.66667 5.59635 9.63021 5.44271 9.57812 5.29688L10.9219 4.28125L10.3125 3.21875L8.76562 3.875C8.53646 3.63542 8.28385 3.4349 8.00781 3.27344C7.73177 3.11198 7.43229 2.98958 7.10938 2.90625L6.90625 1.25H5.67188L5.45312 2.90625C5.13021 2.98958 4.83073 3.11198 4.55469 3.27344C4.27865 3.4349 4.02604 3.63021 3.79688 3.85938L2.25 3.21875L1.64062 4.28125L2.98438 5.28125C2.93229 5.4375 2.89583 5.59375 2.875 5.75C2.85417 5.90625 2.84375 6.07292 2.84375 6.25C2.84375 6.41667 2.85417 6.57812 2.875 6.73438C2.89583 6.89062 2.93229 7.04688 2.98438 7.20312L1.64062 8.21875L2.25 9.28125L3.79688 8.625C4.02604 8.86458 4.27865 9.0651 4.55469 9.22656C4.83073 9.38802 5.13021 9.51042 5.45312 9.59375L5.65625 11.25ZM6.3125 8.4375C6.91667 8.4375 7.43229 8.22396 7.85938 7.79688C8.28646 7.36979 8.5 6.85417 8.5 6.25C8.5 5.64583 8.28646 5.13021 7.85938 4.70312C7.43229 4.27604 6.91667 4.0625 6.3125 4.0625C5.69792 4.0625 5.17969 4.27604 4.75781 4.70312C4.33594 5.13021 4.125 5.64583 4.125 6.25C4.125 6.85417 4.33594 7.36979 4.75781 7.79688C5.17969 8.22396 5.69792 8.4375 6.3125 8.4375Z" fill="#E8EAED"/>
</g>
<defs>
<filter id="filter0_b_1_12" x="-4" y="-4" width="20.5625" height="20.5" filterUnits="userSpaceOnUse" color-interpolation-filters="sRGB">
<feFlood flood-opacity="0" result="BackgroundImageFix"/>
<feGaussianBlur in="BackgroundImageFix" stdDeviation="2"/>
<feComposite in2="SourceAlpha" operator="in" result="effect1_backgroundBlur_1_12"/>
<feBlend mode="normal" in="SourceGraphic" in2="effect1_backgroundBlur_1_12" result="shape"/>
</filter>
</defs>
</svg>
